HIERARCHY
ROOT Hips
{
	OFFSET 0.000000 0.000000 0.000000 
	CHANNELS 6 Xposition Yposition Zposition Yrotation Zrotation Xrotation 
	JOINT Lumbar
	{
		OFFSET 0.000000 0.000000 0.000000 
		CHANNELS 3 Zrotation Xrotation Yrotation
		JOINT Neck
		{
			OFFSET 0.000000 0.445665 0.000000 
			CHANNELS 3 Zrotation Xrotation Yrotation
			End Site
			{
				OFFSET 0.000000 0.227535 0.000000 
			}
		}
		JOINT RightShoulder
		{
			OFFSET 0.019635 0.377685 0.194865 
			CHANNELS 3 Zrotation Xrotation Yrotation
			JOINT RightElbow
			{
				OFFSET 0.000000 -0.243375 0.000000 
				CHANNELS 2 Zrotation Yrotation
				JOINT RightWrist
				{
					OFFSET 0.000000 -0.264825 0.000000 
					CHANNELS 2 Zrotation Xrotation
					End Site
					{
						OFFSET 0.006600 -0.176220 0.000990 
					}
				}
			}
		}
		JOINT LeftShoulder
		{
			OFFSET 0.019635 0.377685 -0.194865 
			CHANNELS 3 Zrotation Xrotation Yrotation
			JOINT LeftElbow
			{
				OFFSET 0.000000 -0.243375 0.000000 
				CHANNELS 2 Zrotation Yrotation
				JOINT LeftWrist
				{
					OFFSET 0.000000 -0.264825 0.000000 
					CHANNELS 2 Zrotation Xrotation
					End Site
					{
						OFFSET 0.006600 -0.176220 -0.000990 
					}
				}
			}
		}
	}
	JOINT RightHip
	{
		OFFSET 0.052140 -0.069960 0.075570 
		CHANNELS 3 Zrotation Xrotation Yrotation
		JOINT RightKnee
		{
			OFFSET 0.000000 -0.402270 0.000000 
			CHANNELS 1 Zrotation
			JOINT RightAnkle
			{
				OFFSET 0.000000 -0.404085 0.000000 
				CHANNELS 3 Zrotation Xrotation Yrotation
				End Site
				{
					OFFSET 0.204105 -0.089430 0.008415 
				}
			}
		}
	}
	JOINT LeftHip
	{
		OFFSET 0.052140 -0.069960 -0.075570 
		CHANNELS 3 Zrotation Xrotation Yrotation
		JOINT LeftKnee
		{
			OFFSET 0.000000 -0.402270 0.000000 
			CHANNELS 1 Zrotation
			JOINT LeftAnkle
			{
				OFFSET 0.000000 -0.404085 0.000000 
				CHANNELS 3 Zrotation Xrotation Yrotation
				End Site
				{
					OFFSET 0.204105 -0.089430 -0.008415 
				}
			}
		}
	}
}
MOTION
Frames: 28
Frame Time: 0.02
-0.00018 -0.0011 0.00043 22.4108 -31.84847 -4.94237 47.15209 1.99757 -4.68398 3.31887 -4.06069 -0.12324 -34.30899 -12.62654 -10.87287 36.17854 86.17639 0.79725 1.1999 -39.12547 12.17545 2.39707 46.04151 -97.43863 6.9269 -1.94517 43.89775 -2.04343 -3.42756 -19.243 -6.58631 -4.28679 -2.90784 49.97531 4.70619 -0.50364 -24.88132 -6.533 2.96469 2.17673
-0.00046 -0.00107 0.00042 22.402 -31.80629 -4.93893 47.18856 1.97298 -4.62537 3.94636 -4.03893 -0.12438 -31.09583 -13.20936 -9.56547 36.45718 86.60221 1.13224 1.17219 -34.89109 12.67633 1.44543 45.99514 -97.34084 6.98417 -1.90138 43.87087 -2.07126 -3.62036 -19.22778 -6.57749 -4.28098 -2.90255 49.95605 4.73017 -0.36877 -24.87692 -6.52333 2.95209 2.16833
-0.00073 -0.00104 0.00041 22.39319 -31.76424 -4.93548 47.22501 1.94845 -4.56686 4.57256 -4.01722 -0.12552 -27.88952 -13.79051 -8.26029 36.73531 87.0267 1.46638 1.14453 -30.6658 13.17525 0.49564 45.94869 -97.24278 7.041 -1.85764 43.84408 -2.09901 -3.81261 -19.21258 -6.5687 -4.27518 -2.89727 49.93686 4.75408 -0.23426 -24.87253 -6.51369 2.93951 2.15994
-0.00101 -0.00101 0.00039 22.38441 -31.72219 -4.93204 47.26138 1.92393 -4.50841 5.19823 -3.99553 -0.12666 -24.68569 -14.37157 -6.9566 37.01313 87.45121 1.80038 1.11691 -26.44373 13.67455 -0.45328 45.90238 -97.14522 7.09807 -1.81397 43.81728 -2.12676 -4.00482 -19.19741 -6.5599 -4.26939 -2.892 49.91766 4.77799 -0.0998 -24.86814 -6.50405 2.92694 2.15156
-0.00128 -0.00098 0.00038 22.37564 -31.67999 -4.9286 47.29774 1.89937 -4.44991 5.82489 -3.9738 -0.1278 -21.47635 -14.95418 -5.65143 37.29141 87.87706 2.13515 1.08926 -22.2143 14.1759 -1.40355 45.85634 -97.04812 7.15565 -1.77027 43.79039 -2.15459 -4.19758 -19.18222 -6.55109 -4.26358 -2.88671 49.89838 4.80196 0.03502 -24.86376 -6.49438 2.91435 2.14316
-0.00155 -0.00095 0.00036 22.36676 -31.63826 -4.92512 47.33436 1.87489 -4.39138 6.45008 -3.95214 -0.12894 -18.27674 -15.53221 -4.34636 37.56925 88.29866 2.46794 1.06157 -17.99812 14.66965 -2.35222 45.80909 -96.94802 7.21089 -1.72648 43.76383 -2.18218 -4.38872 -19.167 -6.54235 -4.25783 -2.88147 49.87938 4.82574 0.16885 -24.85933 -6.48478 2.90182 2.13481
-0.00183 -0.00092 0.00035 22.35812 -31.59564 -4.92174 47.37041 1.85029 -4.33295 7.07761 -3.93037 -0.13007 -15.06069 -16.11892 -3.04238 37.84747 88.72832 2.80438 1.034 -13.75945 15.17827 -3.30325 45.76403 -96.85417 7.27085 -1.6829 43.73662 -2.21021 -4.58289 -19.15187 -6.53346 -4.25197 -2.87613 49.85985 4.84988 0.30451 -24.855 -6.47507 2.88917 2.12637
-0.0021 -0.00089 0.00033 22.34926 -31.55385 -4.91827 47.407 1.82579 -4.27446 7.70285 -3.90866 -0.13121 -11.86048 -16.69744 -1.73767 38.1257 89.15059 3.13738 1.0063 -9.5424 15.67296 -4.25177 45.71748 -96.75439 7.32633 -1.63913 43.71002 -2.23784 -4.77431 -19.13665 -6.5247 -4.2462 -2.87088 49.84081 4.8737 0.4385 -24.85058 -6.46546 2.87663 2.11801
-0.00237 -0.00086 0.00032 22.34013 -31.51302 -4.91464 47.44424 1.80144 -4.21576 8.32618 -3.88718 -0.13235 -8.67504 -17.26694 -0.43013 38.4027 89.56382 3.46665 0.9785 -5.3458 16.15161 -5.19916 45.66695 -96.64786 7.37683 -1.5951 43.68413 -2.26499 -4.96227 -19.12133 -6.51613 -4.24057 -2.86577 49.82234 4.89708 0.57047 -24.84606 -6.45596 2.86423 2.10974
-0.00267 -0.00084 0.00031 22.33252 -31.4665 -4.9118 47.47772 1.77628 -4.15783 8.96323 -3.86482 -0.13349 -5.39068 -17.89138 0.86704 38.68306 90.02908 3.81881 0.95145 -1.01335 16.72553 -6.15894 45.63285 -96.58166 7.45744 -1.5525 43.65406 -2.29494 -5.16986 -19.1066 -6.50656 -4.23422 -2.85995 49.80049 4.92286 0.71412 -24.84212 -6.44579 2.85102 2.10095
-0.0029 -0.00079 0.00029 22.32172 -31.43208 -4.90737 47.51914 1.7528 -4.09858 9.56947 -3.84408 -0.13462 -2.32448 -18.39791 2.18204 38.95865 90.38451 4.12174 0.92272 3.02011 17.09656 -7.0886 45.56822 -96.42946 7.47363 -1.50691 43.63285 -2.31896 -5.33618 -19.09065 -6.49907 -4.22935 -2.85557 49.78582 4.94365 0.83308 -24.83696 -6.43706 2.83953 2.09325
-0.0029 -0.0007 0.00028 22.30174 -31.43022 -4.89795 47.58255 1.7342 -4.033 10.10552 -3.82971 -0.13573 0.21465 -18.5944 3.58047 39.20195 90.43625 4.29611 0.89 6.32663 16.92145 -7.96844 45.38483 -96.04687 7.319 -1.45295 43.6358 -2.32659 -5.38721 -19.07094 -6.49747 -4.22887 -2.85543 49.7906 4.9499 0.88372 -24.82829 -6.43218 2.83295 2.08867
-0.00282 -0.00058 0.00026 22.27858 -31.44057 -4.88706 47.65387 1.71725 -3.96657 10.60771 -3.81655 -0.13683 2.52008 -18.67018 4.99032 39.4439 90.37817 4.41995 0.8555 9.31384 16.54105 -8.81219 45.17724 -95.57743 7.09896 -1.39607 43.64762 -2.32828 -5.39728 -19.05008 -6.49792 -4.22978 -2.85666 49.80257 4.95126 0.9095 -24.81843 -6.42879 2.82809 2.08518
-0.00277 -0.00047 0.00025 22.25719 -31.4458 -4.87723 47.72152 1.69935 -3.90232 11.11637 -3.80167 -0.13793 4.88761 -18.79215 6.37263 39.69915 90.37181 4.56252 0.82136 12.38853 16.24714 -9.65074 45.00356 -95.14335 6.90446 -1.34062 43.65553 -2.33275 -5.42725 -19.02996 -6.49736 -4.22985 -2.85709 49.81148 4.95543 0.94728 -24.80919 -6.42479 2.82228 2.08109
-0.00274 -0.00036 0.00023 22.23458 -31.44945 -4.86569 47.7897 1.68223 -3.8306 11.66373 -3.792 -0.13905 7.44676 -18.94969 7.84984 39.90137 90.35745 4.72243 0.78895 15.71343 15.97985 -10.57952 44.73311 -94.72415 6.72591 -1.28458 43.66317 -2.33685 -5.45121 -19.00885 -6.49721 -4.23092 -2.85833 49.81977 4.95726 0.98279 -24.79956 -6.42049 2.81709 2.07738
-0.00266 -0.00025 0.00022 22.21358 -31.45903 -4.8574 47.85838 1.66394 -3.7741 12.12106 -3.77142 -0.14014 9.54402 -19.00552 9.13146 40.21308 90.33388 4.83477 0.75269 18.43203 15.61056 -11.31292 44.65846 -94.25626 6.50061 -1.22925 43.67322 -2.34036 -5.47862 -18.98962 -6.49661 -4.23012 -2.85815 49.83074 4.96263 1.01618 -24.79051 -6.41718 2.81117 2.07322
-0.0025 -0.00016 0.0002 22.19937 -31.48394 -4.85822 47.92886 1.6414 -3.76112 12.34963 -3.72335 -0.14106 10.48548 -18.80231 9.87501 40.83179 90.31102 4.82382 0.7048 19.63434 14.99282 -11.50572 45.12909 -93.65207 6.1461 -1.17527 43.6899 -2.34334 -5.51967 -18.97498 -6.4948 -4.22486 -2.85429 49.85002 4.98037 1.05832 -24.78307 -6.41614 2.80157 2.06668
-0.00231 -8e-05 0.00019 22.18661 -31.51397 -4.86239 47.99906 1.61774 -3.76329 12.48645 -3.66369 -0.142 10.95783 -18.50262 10.4202 41.55914 90.28293 4.76756 0.65339 20.22159 14.28304 -11.50474 45.79663 -93.0072 5.75022 -1.12247 43.70827 -2.34596 -5.56636 -18.96245 -6.49237 -4.2175 -2.84887 49.87119 5.00162 1.09779 -24.77633 -6.41607 2.79139 2.05981
-0.00213 1e-05 0.00018 22.17218 -31.54041 -4.86518 48.06792 1.59498 -3.75762 12.65787 -3.60748 -0.14292 11.60506 -18.25195 11.05331 42.2349 90.25767 4.7349 0.60446 21.03965 13.62631 -11.59933 46.37641 -92.39489 5.38339 -1.06985 43.72452 -2.34907 -5.61479 -18.9495 -6.48984 -4.21035 -2.84374 49.88978 5.02033 1.13261 -24.76944 -6.41563 2.78234 2.05368
-0.00196 0.0001 0.00017 22.16193 -31.57278 -4.86737 48.1435 1.5706 -3.75574 12.85869 -3.55913 -0.1437 12.40902 -17.97434 11.69711 42.92319 90.22638 4.68779 0.55158 22.05684 12.91396 -11.66205 46.95307 -91.7161 4.9694 -1.01359 43.74692 -2.35079 -5.64506 -18.93416 -6.48892 -4.20626 -2.84032 49.91606 5.04272 1.19045 -24.76175 -6.41496 2.76981 2.04514
-0.00175 0.00018 0.00016 22.14333 -31.59367 -4.87155 48.20462 1.54932 -3.74981 12.97614 -3.49146 -0.14504 12.77424 -17.73261 12.27029 43.60719 90.20821 4.66064 0.50634 22.51154 12.29964 -11.74426 47.57703 -91.17231 4.64668 -0.96587 43.75661 -2.35515 -5.71321 -18.92441 -6.48455 -4.19548 -2.8331 49.92646 5.05851 1.20113 -24.75598 -6.41496 2.76425 2.04145
-0.00142 0.00021 0.00018 22.10159 -31.58305 -4.88098 48.22844 1.53678 -3.72738 12.89245 -3.37473 -0.14559 12.07657 -17.60465 12.70521 44.28727 90.22467 4.70026 0.48125 21.61281 11.96757 -11.93721 48.33651 -90.97748 4.57251 -0.93728 43.73227 -2.36915 -5.90081 -18.92884 -6.47009 -4.16496 -2.81455 49.89459 5.05379 1.07293 -24.75474 -6.41674 2.77898 2.05188
-0.00104 0.00022 0.00022 22.05132 -31.56038 -4.89217 48.23723 1.52744 -3.70089 12.72677 -3.23874 -0.1471 10.94815 -17.51845 13.07361 44.95306 90.25549 4.76159 0.46432 20.16077 11.74027 -12.15349 49.12642 -90.9328 4.59672 -0.91879 43.69478 -2.38547 -6.12373 -18.93896 -6.4523 -4.1281 -2.79245 49.84628 5.04258 0.8992 -24.75552 -6.41913 2.80058 2.06706
-0.00068 0.00024 0.00024 22.00484 -31.54217 -4.9022 48.25115 1.51668 -3.677 12.59475 -3.11052 -0.14972 9.99629 -17.4195 13.4679 45.60245 90.28234 4.81297 0.44488 18.93245 11.47343 -12.35474 49.86846 -90.83416 4.58227 -0.89743 43.66226 -2.39921 -6.31979 -18.94698 -6.4365 -4.09533 -2.7728 49.80411 5.03534 0.75255 -24.75577 -6.42112 2.81843 2.07962
-0.00034 0.00027 0.00027 21.95897 -31.52835 -4.91395 48.27212 1.50566 -3.64945 12.47557 -2.98576 -0.14593 9.11005 -17.2906 13.87647 46.35133 90.29863 4.86344 0.42029 17.8031 11.16979 -12.57347 50.76348 -90.64856 4.53158 -0.8657 43.63393 -2.41919 -6.56081 -18.95306 -6.4187 -4.05746 -2.74964 49.76755 5.02402 0.57889 -24.7544 -6.42364 2.83888 2.09412
5e-05 0.00028 0.0003 21.90955 -31.50259 -4.92237 48.27499 1.49603 -3.62964 12.3103 -2.84972 -0.15557 7.98962 -17.23551 14.2385 46.88938 90.3398 4.9211 0.40837 16.33984 10.96813 -12.7569 51.34153 -90.71188 4.59185 -0.86192 43.59387 -2.42698 -6.71754 -18.96449 -6.40424 -4.02864 -2.73287 49.71548 5.01949 0.45063 -24.75686 -6.42521 2.85558 2.10573
0.00052 0.00023 0.00031 21.85421 -31.4457 -4.92218 48.23037 1.48889 -3.62115 12.04688 -2.68444 -0.2034 6.34123 -17.37351 14.51986 46.84009 90.4506 4.99691 0.42975 14.1301 11.03055 -12.89916 51.06323 -91.14541 4.83213 -0.89775 43.52358 -2.3982 -6.62324 -18.98942 -6.40012 -4.0273 -2.73536 49.62353 5.03621 0.45957 -24.76956 -6.42386 2.85993 2.10798
0.00103 0.00017 0.00032 21.79521 -31.37742 -4.91836 48.16838 1.48314 -3.62263 11.73829 -2.50909 -0.26446 4.47156 -17.58541 14.75192 46.58175 90.58451 5.07832 0.46348 11.59877 11.19144 -12.99559 50.46023 -91.86938 5.19736 -0.96698 43.44216 -2.35745 -6.44423 -19.01949 -6.39946 -4.03518 -2.7443 49.51672 5.05982 0.51567 -24.78599 -6.42158 2.86031 2.1072
